<svg xmlns="http://www.w3.org/2000/svg" viewBox="0 0 25 25">
	<path d="M3.692 17.517A3.696 3.696 0 0 0 0 21.211C0 23.244 1.656 24.9 3.692 24.9s3.694-1.657 3.694-3.689a3.697 3.697 0 0 0-3.694-3.694z"/>
	<path d="M.384 8.142A.386.386 0 0 0 0 8.527v4.688c0 .211.173.383.384.383 6.02 0 10.919 4.898 10.919 10.92 0 .209.171.383.384.383h4.705a.385.385 0 0 0 .387-.383l-.018-.121C16.692 15.423 9.37 8.142.384 8.142z"/>
	<path d="M24.89 24.397C24.825 10.936 13.854.011.384.011A.385.385 0 0 0 0 .397v4.824c0 .212.173.383.384.383 10.429 0 18.913 8.486 18.913 18.914 0 .209.172.383.382.383h4.845a.39.39 0 0 0 .388-.383l-.022-.121z"/>
</svg>