<svg xmlns="http://www.w3.org/2000/svg" fill="none" viewBox="0 0 167 162"><g clip-path="url(#a)"><path fill="#3E1E5D" d="M151.079 80.34C147.307 40.89 123.341 9.777 93.682 1.92V0H78.09v.034c-1.834.035-3.686.12-5.537.343C33.793 4.888 5.12 34.047.483 74.387c-4.638 38.01 24.035 80.924 72.053 86.961 3.34.429 6.628.618 9.829.652h15.59v-1.492c34.349-7.101 56.879-38.746 53.124-80.168Z"/><path fill="#591ED7" d="M166.29 77.287c6.385 48.728-30.524 90.15-78.542 84.044-48.018-6.037-76.69-48.934-72.053-86.96C20.332 34.047 49.005 4.888 87.748.377c38.743-4.442 73.109 35.47 78.542 76.91Z"/><path fill="#fff" d="M106.402 134.488c-5.572-.137-18.62.172-20.211-7.581-.865-4.168-.917-6.055 9.62-23.738 3.842-6.415 9.518-16.174 12.131-24.733 1.401-4.597 2.838-13.825-.779-13.825-5.347 0-3.097 13.344-12.51 15.437-3.08.772-6.23-1.32-6.767-4.46-.657-3.876.572-7.323 2.613-10.496 3.98-6.192 15.176-14.785 28.102-10.515 12.926 4.271 12.701 21.612-5.347 49.518-4.707 7.821-2.647 11.749-1.09 12.727 1.626 1.029 3.893.754 7.683-2.23 1.851-1.372 3.513-1.389 5.26.103 3.738 3.173 6.645 8.919 2.129 13.91-4.517 4.991-16.11 5.849-20.817 5.9l-.017-.017Z"/><path fill="#fff" d="M89.617 44.372c-.779 0-1.142-.051-1.92-.069-1.939-.034-3.462-1.56-3.375-3.378.121-2.179.26-4.803.294-5.97.156-3.927 1.557-7.066-9.12-7.272-8.08-.154-8.98 3.637-9.395 6.02-.415 2.385-.761 5.403-1.004 7.599-.173 1.578-1.522 2.796-3.201 2.881l-2.51.172c-2.802 0-4.325.429-5.19 4.048 0 0-2.077 6.706 2.63 6.706h4.62c5.312 0 2.561 16.449 2.284 18.593-2.56 19.965 0 43.189 9.362 43.189 10.97 0 22.045-27.838 15.539-26.638-7.735 1.424-10.106-10.634-8.289-21.114.796-4.596 1.834-7.666 2.907-9.673 1.748-3.293 2.37-4.357 6.403-4.357 4.793 0 5.19-3.705 5.537-6.98.346-3.277-1.436-3.791-5.537-3.791l-.035.034Z"/></g><defs><clipPath id="a"><path fill="#fff" d="M0 0h167v162H0z"/></clipPath></defs></svg>