<svg role="img" viewBox="0 0 500 500" alt="Hashnode logo"><g fill-rule="nonzero" fill="none"><path d="M81 1h340c44.183 0 80 35.817 80 80v340c0 44.183-35.817 80-80 80H81c-44.183 0-80-35.817-80-80V81C1 36.817 36.817 1 81 1z" fill="#2962FF"/><path d="M376.311 451.797l-.082-.016c28.44-.472 51.572-23.054 52.726-51.475 1.154-28.42-20.07-52.804-48.378-55.58L278.134 163.852c-14.988-26.912-43.926-25.742-54.351 12.452-8.96 36.168-6.654 70.244-9.256 111.42a.626.626 0 01-1.153.296l-91.458-182.323a31.013 31.013 0 0011.858-24.31C133.774 64.605 120.17 51 103.387 51S73 64.605 73 81.387s13.605 30.387 30.387 30.387c1.433 0 2.602-.296 3.755-.296 38.49 98.968 81.33 214.439 96.663 241.07 10.425 25.464 46.017 17.36 46.89-10.128l3.755-144.409c0-.873 1.153-.873 1.45-.296l73.455 174.78a52.523 52.523 0 00-6.588 25.758c.037 29.557 23.988 53.508 53.544 53.544z" fill="#FFF"/></g></svg>