<svg xmlns="http://www.w3.org/2000/svg" height="200" class="site-logo" viewBox="0 0 209.7 196.9"><path d="m111.8 56.2-4.1-3 34.9-25.3-20.4 62.8h-5l16.3-50.3z"/><path d="m128.8 76.9 1.5-4.8 34.9 25.3h-66l-1.6-4.7 52.9-.1z"/><path d="M114.4 99.4h5l-13.3 41-20.5-62.8 4.1-2.9 16.4 50.3z"/><path d="m88.4 92.7 1.6 4.7H46.9l53.4-38.8 4.1 3-42.8 31.1z"/><path d="m86.9 65.9-4.1 3-13.3-41 53.4 38.8-1.6 4.8-42.7-31.1zM108 141l-1.9 5.8c30.4 0 56.2-19.9 65.1-47.3l-6.1.1c-8.5 23.5-30.7 40.6-57.1 41.4M106.1 9.8c-14.4 0-28.5 4.5-40.2 13.1l5 3.5C92.1 12 120 12 141.3 26.4l5-3.5-1.8 5.8c20.3 15.8 29 42.3 21.9 67.1l4.9 3.6c2.2-6.8 3.3-13.9 3.3-21.1-.1-37.8-30.7-68.5-68.5-68.5M43.3 78.3c0-19.4 9-37.7 24.3-49.6l-1.8-5.8c-24 17.4-34 48.3-24.9 76.5l4.9-3.6c-1.6-5.7-2.5-11.6-2.5-17.5M47 99.5l-6.1-.1c8.9 27.5 34.7 47.3 65.1 47.3l-2-5.8c-26.3-.8-48.5-17.8-57-41.4M50.3.5h.5s.1 0 .1.1c.1.1.1.2.2.3 0 .1.1.2.1.3v.5c0 .4-.1.8-.4 1.1s-.7.5-1.1.4l-.1-.1c-.1 0-.1-.1-.2-.1h-.3c-.1 0-.1.1-.2.1-.1.1-.2.3-.2.4l-.3.6c-.1.2-.1.4-.2.6 0 .1-.1.2-.1.4l-.1.5c-.1.2-.1.4-.2.6s-.1.3-.2.5-.1.4-.1.6-.1.5-.1.7c-.1.2-.1.3-.2.5s-.2.5-.2.8c-.1.3-.1.6-.1.8s-.1.4-.1.4v.6c0 .1 0 .3-.1.4s0 .3-.1.4v.2c0 .1-.1.2-.1.4v.3c0 .1 0 .2.1.2v.8c0 .1.1.1.2.1.2 0 .3-.1.5-.2s.3-.2.4-.4l.4-.4.2-.2c.1 0 .2 0 .2.1.1.1.1.2.1.3-.1.1-.2.3-.3.4s-.2.2-.2.4c-.1.2-.1.4-.1.5-.1.1-.1.3-.2.4s-.2.3-.3.4-.2.3-.4.4c-.1.1-.2.3-.3.5 0 .1 0 .1-.1.1l-.2.2c-.1 0-.1.1-.2.1s-.1.1-.2.1c-.2.2-.5.3-.7.5-.2.1-.3.1-.3-.1-.1.1-.2 0-.3 0-.1-.1-.1-.3-.1-.4v-1.7c0-.1 0-.2-.1-.2s-.3.1-.4.2c-.2.1-.3.3-.5.5l-.4.4c-.1.2-.3.4-.4.6s-.3.3-.4.5c-.1.1-.2.2-.3.2s-.3 0-.4-.1-.2-.1-.3-.2-.2-.2-.2-.3c-.1-.1-.1-.3-.1-.4v-1.4c0-.1.1-.3.1-.5s.1-.4.1-.6v-.2c0-.1 0-.2.1-.2 0-.1.1-.2.1-.3v-.1c0-.1 0-.2.1-.4 0-.1 0-.2.1-.3v-.2c.1-.2.1-.3.2-.5 0-.2.1-.4.2-.5 0-.3.1-.5.3-.7s.3-.4.5-.5c.2-.2.4-.3.6-.4s.4-.3.6-.5h.2c.1 0 .2-.1.3-.2l.5-.1c.1 0 .2-.1.3-.1l.2-.2c0-.1.1-.3.1-.4l.1-.8.2-1.1.1-.7v-.3c0-.1.1-.3.1-.4s.1-.3.1-.4 0-.2.1-.2v-.3c0-.1 0-.2.1-.2 0-.1.1-.2.1-.3s.1-.2.2-.4c.1-.1.1-.2.2-.3.1-.2.3-.3.4-.6.1-.2.3-.4.5-.6l.5-.5c.2-.1.3-.2.5-.3h.1c.2 0 .3 0 .3-.1 0 0 .1-.1.2-.1zM45 9.8c-.3 0-.5.1-.7.2l-.6.6c-.2.2-.3.5-.4.7s-.2.4-.2.6v1c0 .2.1.4.2.6.1.1.3.2.6.1s.5-.2.7-.5.4-.5.6-.9c.2-.3.3-.7.3-1 .1-.3.1-.7.1-1 0-.1 0-.2-.1-.3 0-.1-.1-.1-.1-.2-.2.1-.3.1-.4.1"/><path d="M51 7.7c.2 0 .4.1.5.2s.2.3.2.5l-.2.5c.1.1.1.2.1.3v.2c0 .2 0 .5-.1.7s-.1.5-.1.7v.3c0 .1 0 .2-.1.2 0 .1-.1.2-.1.3v.2c0 .1 0 .2-.1.3s-.1.2-.1.3-.1.2-.1.3c.1.2.1.3.1.4v.2c0 .1.1.2.1.2 0 .1.1.1.2.2s.1.1.2.1.2 0 .3-.1l.2-.2.2-.2c.1 0 .1-.1.2-.1h.3c.1 0 .1 0 .1.1v.3l-.2.2-.4.3c-.1.1-.3.2-.4.4-.1.1-.2.2-.3.2-.1.1-.1.3-.2.4-.1.2-.3.4-.4.6s-.3.4-.5.6c-.1.1-.3.2-.4.2s-.2 0-.3-.1-.2-.1-.3-.2-.1-.2-.2-.3-.1-.2-.1-.3V15c0-.1-.1-.1-.1-.1v-.3l.1-.5v-.9c0-.1 0-.3.1-.4s.1-.3.1-.4v-.2c0-.1 0-.2.1-.4s.1-.3.2-.5.1-.4.2-.6c.1-.1.1-.3.1-.5 0-.1 0-.2-.1-.3s-.2-.2-.4-.2c-.1 0-.1 0-.2.1s-.3.1-.5.1l-.1-.1c-.1-.1-.1-.2-.1-.3v.1c0-.1.1-.3.3-.5s.5-.4.7-.6c.3-.2.5-.4.8-.6.3-.1.5-.2.7-.2m0-4.3h.2l.2-.1.2-.1h.2c.2 0 .3.2.3.3.1.2.1.3.2.5v.6c0 .1 0 .2-.1.3s-.1.3-.1.4-.1.2-.1.3-.1.2-.2.3c.2 0 .1.1 0 .2s-.2.1-.3.1c-.4 0-.8-.3-1-.6-.1-.1-.1-.2-.1-.3v-.4c0-.3 0-.6.2-.8.2-.3.3-.5.4-.7M55.9 9.9c0 .2.1.3.2.5.1.1.1.3.1.4s.1.3.1.4v.5l.1.8v.4c0 .1 0 .2.1.2 0 .1.1.2.1.3s.1.2.1.2l.2-.2c0-.1.1-.2.2-.2l.3-.3c.1-.1.2-.2.2-.3 0-.2.1-.3.2-.5.2-.1.2-.2.2-.3v-1c0-.1 0-.2-.1-.3s-.1-.2-.2-.3-.1-.2-.2-.3c0-.1-.1-.2-.1-.3v-.3c0-.1.1-.1.1-.2l.2-.2c.1-.1.1-.2.2-.3 0-.2.2-.4.3-.6.2-.1.3-.3.6-.5.1 0 .2.1.3.2s.1.2.2.3c.1.2.3.4.4.6s.1.4.1.6v1.2c0 .2 0 .4-.1.6s-.2.5-.3.7v.1l-.1.1c-.1 0-.1.1-.1.2-.1.1-.1.2-.2.2 0 .1-.1.1-.1.2v.2c0 .1 0 .1-.1.1l-.2.2c-.1.1-.1.2-.2.2 0 .1-.1.2-.1.3-.1.2-.3.3-.4.4l-.3.3-.3.3c-.1.1-.2.3-.3.4-.2.2-.3.4-.4.6s-.2.4-.4.6c-.1.2-.3.3-.4.4-.2.1-.4.2-.6.2H55c-.1 0-.1-.1-.1-.3l.1-.9c-.1-.1-.1-.3-.1-.4v-2c0-.1-.1-.2-.1-.3s-.1-.2-.1-.3v-.3c0-.1-.1-.2-.1-.3-.1-.2-.1-.4-.2-.6l-.2-.6c0-.1-.1-.2-.1-.4s-.1-.3-.3-.4c0 .1-.2.1-.3.1h-.2l-.1.1s-.1.1-.2.1h-.3c-.1 0-.1 0-.2-.1l-.1-.1c0-.2.1-.3.2-.5s.2-.2.3-.2l.5-.5c.2-.1.3-.3.6-.4l.1-.1.3-.3c.1-.1.2-.2.3-.2.1-.1.2-.1.3-.1s.3.1.3.2c.1.1.1.2.1.4V9zM183.8 102.6c.2 0 .4.1.5.3.1.1.2.3.2.5q0 .15-.3.3c-.2.1-.4.2-.7.3-.2.1-.5.2-.7.2s-.3.1-.5.2c-.1.1-.2.2-.2.4 0 .1-.1.3-.1.4s0 .3.1.4c0 .1.1.3.2.4.1.2.2.3.3.6l.3.6c.1.3.2.5.2.8.1.3.1.7.1 1 0 .4-.1.7-.3 1s-.5.6-.8.9c-.3.1-.5.3-.6.4s-.3.2-.4.2c-.1.1-.2.1-.3.1h-1.3c-.1 0-.2 0-.3.1l-.4.1h-.5c-.2 0-.5-.1-.5-.4v-.1c0-.1.1-.3.2-.4.1-.2.3-.4.4-.5l.5-.5c.1-.1.3-.2.5-.2.1 0 .1 0 .2.1s.2.1.3.2.3.1.4.2c.2.1.3.1.5.1.1 0 .2 0 .3-.1l.3-.3c.1-.1.1-.2.2-.3 0-.1.1-.2.1-.3 0-.3-.1-.5-.3-.8s-.3-.6-.5-.9-.4-.6-.5-.9c-.1-.2-.2-.4-.2-.7v-.2c.1-.2.1-.4.2-.6l.3-.6c.1-.2.2-.3.4-.5.1-.1.3-.2.5-.3.1-.1.2-.1.3-.2s.2-.2.2-.3l.3-.3.2-.2c.1-.1.3-.1.5-.1h.5z"/><path d="M187.3 101.1c.1 0 .1 0 .2.1.1 0 .2.1.3.2s.2.1.2.2c.1.1.1.2.1.3-.1.3-.2.5-.3.7l-.3.6-.2.5s-.1.1-.2.3-.2.3-.3.5-.2.3-.3.5c-.1.1-.1.2-.1.4l.2.3c.1 0 .3-.1.6-.4l.8-.8.8-.8c.2-.2.4-.3.7-.4.2 0 .3.1.4.3s.2.4.2.6c.1.2.1.4.1.7v.4c0 .1 0 .3-.1.4-.1.2-.1.4-.1.6l-.1.1v.1s0 .1.1.1c0 .2-.1.4-.2.6-.1.3-.2.5-.3.7s-.2.5-.3.7c-.1.1-.1.2-.2.4s-.3.4-.4.6l-.5.5c-.2.2-.4.3-.6.5s-.5.4-.6.6c-.2.2-.4.3-.6.4s-.4.2-.6.4c-.2.1-.3.3-.4.5s-.1.4-.1.7v.4c0 .1 0 .3-.1.4 0 .1-.1.2-.1.4s-.1.3-.1.4v1.1c0 .1 0 .2-.1.3 0 .1-.1.1-.1.2s0 .1-.1.2v1.4c0 .3.1.4.2.4s.3.1.5.1h.3c.2 0 .4.1.5.2s.2.3.2.5c0 .1-.1.2-.1.2-.1.1-.2.2-.4.2s-.4.1-.6.2-.4.2-.7.1h-.5c-.3.1-.5.1-.8.1s-.5.1-.8.1h-.3c-.1 0-.1 0-.2.1l-.2.1h-.2c-.1 0-.2-.1-.2-.1l-.2-.2c0-.1-.1-.1-.1-.2v-.2c0-.1.1-.2.1-.3.1-.1.2-.1.3-.1h.6c.1 0 .1-.1.2-.1s.1 0 .2-.1c.1 0 .1-.1.1-.1 0-.1.1-.1.1-.2s.1-.2.1-.3.1-.3.1-.4l.1-.4c0-.1.1-.2.1-.2v-.2c0-.1 0-.3.1-.4 0-.2.1-.4.1-.6.1-.2.1-.6.2-.9 0-.1.1-.1.1-.2l.1-.2v-1.5l.2-.5.2-1.2.1-.5c0-.1 0-.1.1-.2 0-.1.1-.2.1-.3s.1-.2.1-.3.1-.2.1-.3v-1.3c0-.1.1-.3.1-.5l.1-.4c0-.1.1-.2.1-.3v-1q0-.3-.3-.3h-.1c-.1 0-.2.1-.3.1l-.3.3c-.3.3-.5.4-.6.4h-.1v-.2c0-.2.1-.5.2-.7.2-.2.3-.4.5-.6.2-.3.4-.7.7-1s.5-.6.8-1c.3-.3.5-.6.8-1 .2-.3.4-.7.6-1.1.1 0 .1 0 .2-.1.2-.3.3-.3.4-.3m.7 4.8c-.1 0-.3.1-.4.1-.3.2-.5.4-.8.6-.1.1-.1.2-.1.2-.2.3-.3.6-.4 1-.1.3-.2.6-.4.9v.5c0 .1 0 .2.1.3 0 .1.2.2.4.2.1 0 .2-.1.3-.1.1-.1.3-.2.4-.3l.5-.5c.1-.1.2-.1.3-.2l.3-.3c.1-.1.1-.2.1-.3v-.6c0-.1 0-.1-.1-.2v-.9c0-.1 0-.2-.1-.3 0-.1-.1-.1-.1-.1M195.9 102.6c.2 0 .4.1.6.2.1.2.2.4.2.6 0 .1 0 .2-.1.3 0 .2-.1.3-.1.6-.1.2-.1.4-.2.6l-.1.5v.3c0 .1-.1.3-.1.4-.1.1-.2.2-.1.4v.4l-.1 1v1.2c0 .1.1.2.1.2 0 .1.1.1.2.1l.3-.4c.1-.1.2-.1.3-.2l.3-.3.3-.3c.1 0 .1 0 .2.1 0 .1.1.1.1.2l-.1.1c0 .1-.1.2-.1.2l-.3.6c-.1.2-.3.3-.4.5l-.5.5c-.2.2-.3.4-.5.6l-.4.6c0 .1 0 .2-.1.3s-.1.2-.2.3-.2.1-.3.1-.2-.1-.2-.2c-.1-.2-.1-.4-.1-.6s0-.4.1-.6c0-.2.1-.4.1-.6s.1-.4.1-.5v-1c0-.1 0-.1-.1-.1h-.1l-.3.3c-.2.2-.3.5-.5.7l-.6.8c-.1.2-.3.4-.5.6l-.2.2-.3.3c-.1.1-.2.2-.3.2-.1.1-.2.1-.3.1-.2 0-.3-.1-.4-.2s-.2-.3-.3-.4c-.1-.2-.1-.3-.1-.5v-.4l-.1-1.3.3-2.1c0-.1 0-.2.1-.3 0-.1.1-.3.1-.4.1-.2.1-.3.2-.5.1-.1.1-.3.2-.4.4-.4.7-.8 1-1.2.1-.2.3-.3.5-.5.1-.1.3-.2.4-.2.1-.1.3-.1.4-.1.2 0 .3-.1.5-.2.1 0 .2-.1.3-.1.1-.1.2-.2.3-.2h.8zm-2.3 2-.6.6c-.2.2-.4.5-.5.7s-.2.4-.3.7c-.1.2-.1.3-.1.5v.8c0 .2.1.3.1.5.1.1.2.2.4.2s.3-.1.6-.4l.6-.9c.2-.3.3-.7.5-1 .1-.2.1-.4.2-.6v-1c0-.1-.1-.3-.2-.4-.3.1-.5.2-.7.3"/><path d="M200.1 103c.1 0 .2 0 .3.1s.1.2.2.3c0 .1.1.2 0 .3 0 .1 0 .3-.1.4 0 .1-.1.3-.1.4v.3l.1.3.2.4s.1-.1.3-.2l.5-.5c.2-.2.4-.4.6-.7.2-.2.4-.5.6-.7l.5-.5c.1-.1.2-.2.3-.2s.2.1.2.2c.1.1.1.2.2.4s.1.4.2.6v.7c0 .3-.1.7-.2 1-.1.4-.2.7-.3 1.1s-.2.7-.3 1-.1.6-.2.8-.1.3-.1.3v.5c.1 0 .1.1.2.1l.2-.1c.1 0 .1-.1.2-.1l.2-.2.6-.4c.1-.1.2-.1.3-.2.1 0 .2.1.2.1.1.1.1.1.1.2s-.1.1-.1.2l-.3.3-.3.3c-.1.1-.1.1-.2.1 0 .1 0 .2-.1.3 0 .1-.1.1-.2.1-.2.2-.3.4-.5.6-.1.2-.3.4-.4.5-.1.2-.3.3-.4.4-.2.1-.4.2-.6.1-.1 0-.2 0-.3-.1s-.2-.1-.2-.2c-.1-.1-.1-.2-.2-.3 0-.1-.1-.2-.1-.3l-.1-.7c.1-.3.2-.7.3-1.1s.2-.7.3-1.1c.1-.3.2-.6.2-.8.1-.2.1-.5.1-.7v-.2c0-.3-.2-.5-.4-.5s-.5.1-.7.2-.3.3-.4.5l-.3.6c-.1.2-.2.4-.3.7-.1.1-.1.1-.1.2v.2c0 .1-.1.3-.1.4s-.1.3-.1.4c-.1.4-.3.8-.4 1.2s-.2.7-.3 1.1c.1.1.1.2 0 .2h-.5c-.1 0-.3 0-.4-.1-.1 0-.2-.1-.3-.2s-.2-.2-.2-.3c0-.2 0-.4.1-.6s.2-.4.2-.6c.1-.2.2-.4.3-.5s.1-.2.1-.3v-.7l-.1-.3c0-.1 0-.2.1-.3 0-.1.1-.2.2-.3l.2-.3c0-.1.1-.1.1-.2v-.3l-.1-.7v-.2c0-.1-.1-.1-.2-.1s-.2 0-.2.1c-.1 0-.2.1-.3.1l-.3.1c-.1 0-.1 0-.2.1h-.1c-.1 0-.1-.1-.1-.3 0-.1.1-.2.1-.3.3-.4.6-.8.9-1.1s.6-.6 1-.9c.1 0 .2-.1.3-.2.4.1.6.1.7.1M8.3 105.4h.3c.1 0 .2 0 .3.1.1 0 .2.1.2.1.1.1.1.2.1.3s-.1.2-.3.4l-.5.7c-.2.2-.4.5-.6.7-.1.1-.2.3-.3.5 0 .1 0 .2.1.2s.1.1.2.1h1l.1-.1c.1-.1.1-.1.2-.1.2 0 .3.1.4.2.1.2.1.3.1.5v.5c0 .1-.1.3-.2.3-.1.1-.2.2-.4.2s-.3.1-.5.1H7.4c-.1 0-.2.1-.3.1-.1.1-.2.2-.2.3v.9s-.1.1-.1.2c-.1.1-.1.2-.1.3v.2c0 .2 0 .5-.1.7 0 .2-.1.3-.2.4s-.1.1-.1.2c-.1.1-.1.3-.1.4v.7c0 .1.1.2.1.3.1.1.1.2.2.2.1.1.2.1.3.1s.3 0 .4-.1c.1 0 .1-.1.1-.1.1 0 .2 0 .2.1l.2.2c.1.1.1.2.1.3s-.1.3-.1.4c-.1.2-.2.3-.3.5-.1.1-.2.3-.4.4-.1.1-.2.2-.3.2s-.2.1-.2.2c-.1.1-.1.2-.1.3h-.2l-.2-.3c-.1 0-.2.1-.4.1h-.4c-.1 0-.1-.1-.1-.2-.1-.1-.1-.2-.2-.3-.1-.2-.1-.3-.2-.5s-.1-.4-.2-.5c0-.1-.1-.2-.1-.4v-1.2c0-.2.1-.4.1-.6s.1-.4.1-.6v-.8c.1-.3.2-.5.3-.7s.1-.4.2-.6c0-.1.1-.2.1-.3v-.6c0-.2 0-.3-.1-.3s-.2-.1-.2-.2c-.1-.1-.1-.1-.1-.2s0-.2.1-.2c.1-.1.1-.2.2-.2.1-.1.2-.2.2-.3.1-.1.1-.2.2-.3 0-.1.1-.3.2-.3.1-.1.2-.1.3-.2.1-.2.3-.3.5-.5.2-.1.4-.3.5-.6.1-.2.2-.3.2-.5.1-.2.2-.3.3-.4.2-.1.3-.1.4-.3.2 0 .3-.1.4-.1M14.2 108c.2 0 .4.1.6.2.1.2.2.4.2.6 0 .1 0 .2-.1.3 0 .2-.1.3-.1.6-.1.2-.1.4-.2.6l-.1.5v.3c0 .1-.1.3-.1.4-.1.1-.2.2-.1.4v.4l-.1 1v1.2c0 .1.1.2.1.2 0 .1.1.1.2.1l.3-.4c.1-.1.2-.1.3-.2l.3-.3.3-.3c.1 0 .1 0 .2.1 0 .1.1.1.1.2l-.1.1c0 .1-.1.2-.1.2l-.3.6c-.1.2-.3.3-.4.5l-.5.5c-.2.2-.3.4-.5.6l-.4.6c0 .1 0 .2-.1.3s-.1.2-.2.3-.2.1-.3.1-.2-.1-.2-.2c-.1-.2-.1-.4-.1-.6s0-.4.1-.6c0-.2.1-.4.1-.6s.1-.4.1-.5v-1c0-.1 0-.1-.1-.1h-.1l-.3.3-.5.7-.6.8c-.1.2-.3.4-.5.6l-.2.2-.3.3c-.1.1-.2.2-.3.2-.1.1-.2.1-.3.1-.2 0-.3-.1-.4-.2s-.2-.3-.3-.4c-.1-.2-.1-.3-.1-.5v-.4l-.1-1.3.3-2.1c0-.1 0-.2.1-.3 0-.1.1-.3.1-.4.1-.2.1-.3.2-.5.1-.1.1-.3.2-.4.4-.4.7-.8 1-1.2.1-.2.3-.3.5-.5.1-.1.3-.2.4-.2.1-.1.3-.1.4-.1.2 0 .3-.1.5-.2.1 0 .2-.1.3-.1.1-.1.2-.2.3-.2h.8zm-2.3 2-.6.6c-.2.2-.4.5-.5.7s-.2.4-.3.7c-.1.2-.1.3-.1.5v.8c0 .2.1.3.1.5.1.1.2.2.4.2s.3-.1.6-.4l.6-.9c.2-.3.3-.7.5-1 .1-.2.1-.4.2-.6v-1c0-.1-.1-.3-.2-.4-.3.1-.5.1-.7.3"/><path d="M19.7 100.7h.5c.1 0 .2 0 .3.1.1 0 .2.1.3.1l.5-.1h.3c.1 0 .2 0 .3.1s.2.1.3.2.2.2.2.3.1.2.1.2c0 .2 0 .4-.1.6s-.1.4-.3.6c-.1.2-.3.4-.5.5-.2.2-.5.3-.7.3h-.4c-.2 0-.3 0-.4.1-.2.1-.3.2-.5.3-.1.1-.3.2-.4.4-.1.1-.1.2-.1.4-.1.1-.2.3-.2.4 0 .2-.1.3-.2.5-.1.1-.2.3-.2.4v.4l-.2.7c0 .2 0 .3-.1.5s-.2.4-.2.6c-.1.2-.2.4-.2.6-.1.2-.1.5-.1.7v.4c0 .1 0 .1.1.1h.1c.1 0 .2-.1.3-.2s.2-.3.3-.5.3-.4.5-.5c.2-.2.5-.2.7-.2l.4-.1c.2 0 .5.1.6.2.2.2.2.4.2.7v.1l-.1.4.1.3c0 .2.1.3.1.5 0 .1 0 .2-.1.3 0 .1 0 .1-.1.2v.5c0 .1 0 .2-.1.3v.6c0 .1-.1.2-.1.2-.1.1-.1.2-.2.4-.1.1-.2.3-.3.5s-.2.3-.2.5l-.2.8-.6.9c-.2.3-.3.4-.5.6-.1.1-.2.3-.3.4s-.2.1-.3.2l-.2.2c-.1.1-.2.1-.3.1H17l-.5.1c-.1 0-.2 0-.2-.1s-.1-.1-.1-.2v-.3c0-.1 0-.2-.1-.3 0-.1 0-.1-.1-.2 0-.1-.1-.1-.1-.2l-.2-.3c-.1-.1-.1-.2-.1-.3s0-.3.1-.4c0-.1.1-.2.1-.3v-.6l.2-1.7v-.4l.3-1.7v-.6c0-.2.1-.4.1-.6.1-.4.1-.7.1-1.1v-.5l.5-2.1v-.5c0-.2.1-.4.1-.6s.1-.5.2-.7l.1-.5c0-.2.1-.3.2-.5.1-.1.2-.3.4-.6zm-1 9.8c-.2 0-.3.1-.5.4s-.4.6-.5.9-.3.6-.4 1c-.1.2-.1.4-.1.6v1c0 .1 0 .2.1.2 0 .1.1.1.1.1h.2l.6-.3c.2-.2.4-.3.6-.5s.3-.4.4-.6.2-.4.2-.6v-.9l-.1-.4.1-.3c.1-.3-.1-.6-.5-.7-.1.1-.1.1-.2.1M27.7 100.9c.4 0 .6.1.7.3s.1.5.1.7v.3c0 .2-.1.4-.2.6s-.2.4-.4.5c-.2.2-.3.3-.5.4-.1.1-.3.2-.4.2s-.3 0-.4-.1c-.1 0-.2-.1-.3-.1-.3 0-.6.1-.8.2-.3.2-.5.4-.5.8-.1.1-.1.3-.1.5 0 .1 0 .3-.1.4-.1.3-.2.7-.3 1-.1.4-.2.8-.2 1.1v.2c0 .1 0 .2-.1.3 0 .1 0 .2-.1.3v.6l-.3 1.5v.6c0 .2-.1.5-.1.8-.1.3-.1.6-.2.9-.1.4-.1.7-.1 1.1v.4c0 .2.1.2.2.2s.2 0 .4-.1c.1-.1.3-.2.4-.3l.4-.3c.1-.1.2-.2.4-.3.2-.2.5-.4.7-.6s.4-.3.7-.3l.1.1c0 .2 0 .3-.1.5s-.2.4-.3.5c-.1.2-.2.3-.4.5-.1.1-.2.2-.4.3l-.6.6c-.2.3-.4.5-.6.7-.1.2-.2.3-.4.4s-.3.2-.5.3-.4.2-.7.3c-.2.1-.4.2-.7.2-.1 0-.2 0-.3-.1-.1 0-.1-.1-.1-.2V115c0-.2 0-.3.1-.5s.1-.3.1-.5v-.5c0-.2.1-.5.1-.8 0-.4.1-.8.1-1.3v-1.6c0-.1 0-.2.1-.3s.1-.2.1-.3v-.7c.1-.4.1-.7.2-1 0-.3.1-.7.1-1s.1-.7.1-1c.1-.3.2-.7.3-1s.3-.7.5-.9c.2-.3.4-.6.6-1 .1-.2.2-.3.3-.4s.2-.2.4-.3c.2-.3.4-.5.7-.7s.6-.2.9-.2h1.4z"/><path d="M30.4 108.2c.2 0 .4 0 .6.1s.3.2.4.4.2.4.2.6.1.4.1.7-.1.6-.4.8c-.2.2-.5.4-.7.5-.2.2-.5.3-.7.4-.3.1-.5.2-.7.4-.2.1-.4.3-.6.5s-.2.5-.2.7v.8c0 .2 0 .4.1.6s.2.3.4.3c0 0 .1 0 .1-.1l.3-.2c.1-.1.2-.1.3-.2l.2-.2c.2-.1.3-.2.4-.2s.1-.1.2 0h.2c.1 0 .1.1.1.3 0 .3-.2.6-.3.8-.2.2-.4.5-.7.7-.2.2-.5.4-.7.6-.2.1-.3.2-.5.3q-.3.3-.6.3h-.5c-.1 0-.2-.1-.3-.1l-.3-.3c-.1-.1-.2-.2-.2-.4 0-.1-.1-.2-.1-.3v-.3c0-.1 0-.2-.1-.3 0 0 0-.1-.1-.1l.1-.4v-.7c0-.2.1-.4.1-.7s.1-.5.1-.7.1-.4.1-.4l.1-.1v-.2c0-.1 0-.1.1-.2 0-.2 0-.3.1-.5 0-.1.1-.2.1-.3l.3-.6c0-.3.2-.6.4-.8.2-.3.5-.6.8-.8s.6-.4 1-.6c.2-.1.5-.2.8-.1m-.8 1.3c-.1 0-.1 0-.2.1s-.1.2-.2.3-.1.3-.2.4c0 .1 0 .1-.1.2 0 .1 0 .1-.1.2v.2l.1.1h.3c.1 0 .3-.1.4-.2l.3-.3c.1-.1.2-.2.2-.3v-.3c0-.1 0-.1-.1-.2l-.1-.1c-.1 0-.1-.1-.2-.1zM54.4 166h.3c.2 0 .4.1.6.2.3.1.5.2.8.2l.9-.3h1.8c.2 0 .4.1.5.3 0 .1.1.2.1.3 0 .3 0 .6-.2.9-.1.2-.3.3-.5.3-.2.1-.4.1-.6.1s-.4.1-.6.1c-.2.1-.4.3-.5.5-.1.4-.2.7-.2 1.1 0 .3.1.5.1.8.1.2.1.5.1.8v.9c0 .4.1.8.4 1.1s.6.5 1 .5c.1 0 .3 0 .4-.1.1 0 .1 0 .2-.1l1.1.2H62c.3 0 .5.1.7.3h.5c.1 0 .2-.1.2-.2.1 0 .1-.1.2-.1h1.2c.1-.1.2-.2.3-.4.1-.1.2-.3.2-.5v-2.4L65 169v-.5c0-.2-.1-.3-.2-.4s-.3-.2-.5-.2c-.2-.1-.3-.2-.5-.3-.2-.2-.2-.4-.2-.6 0-.3.1-.5.4-.7.2-.2.5-.3.8-.3.3.1.5.2.8.3.2.1.5.1.8.2s.6.1.9.1h1.2c.2 0 .5 0 .7.1.2 0 .5.1.7.2s.4.3.6.5.2.5.2.7l-.2.3-.7.2H69c-.1 0-.3.1-.5.4-.2.2-.3.4-.3.7v3.2c0 .2 0 .4.1.7 0 .2.1.5.1.7 0 .1 0 .2-.1.3s-.1.2-.2.3c-.1.2-.1.4-.2.6v1.7c0 .3 0 .6.1.9 0 .3.1.5.1.8 0 .2 0 .4-.1.5-.1.2-.1.4-.1.7v.8c0 .1 0 .2.1.3.1.3.3.5.5.6.3.2.6.3.9.4s.6.2.9.4c.3.1.4.3.4.4s0 .3-.1.4l-.3.3c-.1.1-.3.2-.4.2h-3.4l-1.4-.3-.9.3h-.3c-.1 0-.2 0-.4-.1-.1 0-.2-.1-.3-.2s-.1-.2-.1-.4q0-.3.3-.6c.2-.1.4-.3.7-.5s.5-.4.7-.7.3-.7.3-1.1v-3.5c0-.2-.1-.4-.2-.5-.1-.2-.2-.3-.4-.3h-2c-.2 0-.4-.1-.6-.2s-.4-.1-.6-.2h-2.9c-.4 0-.7.1-1 .3s-.4.6-.4.9v2l-.2.6v.3c0 .2 0 .3.1.5s.1.4.1.6c-.1.2-.1.5.1.7s.5.4.7.6l.8.5c.2.1.4.3.4.6 0 .1 0 .1-.1.2s-.2.1-.3.2c-.1 0-.2.1-.4.1h-.3c-.1 0-.3 0-.4-.1-.2-.1-.4-.1-.6-.2s-.5-.1-.7-.2-.5-.1-.7-.1c-.1.1-.2.1-.3.2-.1 0-.2.1-.3.1H53c-.3 0-.6-.1-.8-.2-.3-.1-.4-.4-.4-.7s0-.5.1-.8.3-.4.6-.4l.5-.3c.2 0 .4-.2.6-.3s.3-.3.3-.5v-2c0-.3-.1-.6-.2-.8-.1-.4-.2-.8-.2-1.2v-1.7c0-.2.1-.3.1-.5s.1-.4.1-.5v-.3l-.3-1.4c0-.2.1-.4.2-.6.1-.1.1-.3.2-.5v-2c0-.1-.1-.3-.3-.3-.3-.1-.5-.2-.8-.2s-.6-.1-.8-.2-.3-.1-.3-.2c0-.4.1-.7.3-1s.4-.4.7-.4l1.5-.1zM91.1 165.3c.1 0 .1.1.2.2.1.2.1.4.2.5.1.2.1.4.2.6 0 .1.1.3.1.4v2.7c0 .2 0 .5-.1.7q0 .3-.3.6c-.1.2-.3.3-.5.3-.3 0-.5-.1-.7-.2q-.3-.3-.3-.6c-.1-.2-.1-.5-.2-.8 0-.3-.1-.5-.2-.8-.1-.2-.3-.4-.5-.6-.3-.2-.6-.3-1-.2h-2c-.1 0-.2.1-.3.1l-.4.1c-.4 0-.7.1-1 .4-.2.3-.4.7-.4 1v1.9c0 .1.1.3.2.4l-.2 1.2v5c0 .3 0 .7.1 1 0 .2.1.4.2.6s.2.3.3.4l.3.3c.3.1.6.2.8.3.3.1.6.1.9.1.5.1 1 .3 1.4.6.3.2.4.5.5.9 0 .3-.1.6-.3.8-.3.3-.7.4-1.1.5-.2 0-.4 0-.5-.1-.4-.1-.7-.2-1.1-.2h-.7c-.2 0-.5 0-.7-.1-.2 0-.4-.1-.6-.2h-2.9c-.3 0-.5.1-.7.2-.4.1-.8.2-1.3.2h-2.1c-.1 0-.2 0-.2.1-.1.1-.3.1-.6.1-.1 0-.1-.1-.1-.1l-.1-.1v-.2c.1-.2.2-.5.3-.7l.3-.6c.1-.2.3-.4.4-.6.3-.1.6-.2.8-.3s.4-.2.6-.2c.1 0 .3-.1.4-.1l1.5-.3c.1 0 .3-.1.3-.3.1-.2.1-.4.2-.6 0-.3.1-.6.1-1v-3.2c0-.1.1-.3.1-.4l.1-.2v-4.9c0-.1 0-.2-.1-.3s-.1-.3-.2-.4-.2-.2-.4-.3c-.1-.1-.3-.1-.4-.1H76c-.3 0-.7.1-1 .2-.2.1-.4.3-.5.6-.1.2-.2.5-.3.8s-.1.5-.2.8c-.1.2-.2.4-.4.6s-.5.2-.7.2c-.3 0-.5-.1-.7-.3-.1-.2-.2-.5-.2-.7v-.4c0-.2 0-.4.1-.5 0-.2.1-.4.1-.5v-.3l.4-1.5v-.4c0-.2.1-.5.2-.7s.1-.4.3-.6c.1-.2.2-.3.4-.3s.4 0 .6.2l.5.3c.1.1.2.2.4.2.2.1.4.1.5.1.2 0 .4 0 .6-.1.2 0 .4-.1.6-.1h.6c.1 0 .1.1.2.1h5.2l.8-.2.9.2c.4 0 .9 0 1.3-.1s.9-.1 1.3-.1h1.5c.3 0 .7 0 1-.2.3-.1.5-.2.7-.3s.4-.2.5-.3c.2-.1.3-.2.4-.2M114.6 165.3c.7 0 1.2.2 1.4.6q.3.6.3 1.2c0 .1-.1.2-.1.3-.1.1-.2.3-.3.4s-.3.2-.4.3-.2.1-.3.1h-.9c-.2 0-.4.1-.6.2-.2 0-.5.1-.7.2s-.3.3-.4.5-.1.4-.1.7v4.9c0 .2 0 .4.1.5s.1.2.2.3.2.2.2.4v.4l-.1 1c0 .3 0 .6.1.8s.1.4.1.6l.4.9v.9c0 .3.2.7.5.8.4.1.8.3 1.2.4l1.2.3c.3.1.5.3.5.6q0 .9-.9.9h-1.6c-.2 0-.3.1-.5.2l-2.5-.2h-1.8l-.7.1c-.3 0-.5 0-.7.1s-.4 0-.4 0c-.2 0-.4 0-.7-.1-.1 0-.2-.2-.2-.5s.1-.6.2-.9c.2-.3.5-.5.9-.5h1.8c.1 0 .3 0 .3-.1.1-.1.2-.2.2-.3s0-.3.1-.4v-.3c0-.3-.1-.6-.2-1-.1-.2-.1-.5-.2-.8v-3.3c0-.2-.1-.4-.1-.6-.1-.2-.1-.3-.2-.5-.1-.1-.1-.2-.2-.2s-.1.1-.3.3c-.1.2-.3.4-.5.7l-.6.9c-.2.3-.4.7-.6 1s-.4.6-.5.9c-.2.3-.3.5-.4.6-.2.1-.3.3-.4.5l-.3.6c-.1.2-.2.4-.2.6s-.1.4-.2.6c-.2.3-.3.5-.5.7s-.3.4-.4.5l-.3.6c-.1.1-.2.1-.3.1-.2 0-.4-.1-.5-.2-.1-.2-.2-.5-.4-.7l-.2-1.9c-.1-.4-.3-.7-.5-1.1s-.4-.8-.5-1.2-.3-.8-.4-1.2-.2-.7-.2-1.1v-.3c0-.1 0-.3-.1-.4-.1-.2-.1-.4-.2-.6s-.2-.3-.3-.5c-.1-.1-.2-.2-.3-.2s-.1.1-.2.3l-.3.6c-.1.2-.2.5-.2.7s-.1.4-.1.6v2.1c-.1.5-.2 1-.2 1.4-.1.4-.1.7-.2 1.1 0 .2-.1.4-.1.6q0 .9.3 1.2c.2.2.4.3.7.4.2.1.5.1.7.2s.3.2.3.6c0 .2 0 .4-.1.5s-.2.2-.3.2c-.1.1-.2.1-.4.1h-1.5l-2.9-.5h-1.1c-.1 0-.1.1-.2.1-.1.1-.3.1-.4.1h-.9c-.1 0-.2-.1-.4-.1-.1 0-.2-.1-.3-.2-.1 0-.1-.1-.1-.2 0-.2.1-.4.2-.5.2-.2.3-.3.5-.4s.4-.2.6-.2c.1 0 .2-.1.4-.1h1c.2 0 .4 0 .6-.1.2 0 .5-.1.8-.1.2-.2.3-.5.4-.7.1-.4.3-.7.4-1.1s.2-.7.3-1c.1-.2.1-.4.1-.6V177c.1-.1.1-.2.2-.3 0-.1.1-.3.1-.4V174c0-.2.1-.3.1-.5s.1-.4.2-.6v-.9l.1-.4c0-.1.1-.2.1-.3v-1.1c0-.1 0-.3-.1-.4-.1-.2-.1-.4-.2-.7l-.3-.9c-.1-.2-.3-.3-.4-.4-.2-.1-.4-.2-.5-.4-.1-.1-.3-.2-.4-.3-.2-.1-.3-.2-.4-.4v-.3c0-.1.1-.2.2-.3s.2-.1.4-.2c.2 0 .3-.1.5-.1h1.2c.1 0 .1-.1.2-.1 0-.1.1-.1.1-.1s.1-.1.1 0h2l.9.3c.2.5.4 1.2.7 1.9.2.8.5 1.6.7 2.4.2.9.5 1.7.7 2.6.2.8.5 1.6.7 2.3s.4 1.2.6 1.6.3.6.4.6c0-.1.1-.2.2-.3 0-.1.1-.2.2-.3s.1-.2.2-.2c.3-1.1.7-2.2 1.2-3.2.5-1.1 1-2.2 1.4-3.2 0-.4.1-.8.4-1.1s.5-.7.8-1.1c.1-.2.1-.4.1-.6s.1-.5.1-.7.1-.5.3-.7c.1-.2.4-.4.6-.4h1.2l.4.2c.3 0 .5 0 .8-.1.2-.1.5-.1.7-.2s.1 0 .3-.1M120.9 166h.3c.2 0 .4.1.6.2.3.1.5.2.8.2l.9-.3h1.8c.2 0 .4.1.5.3 0 .1.1.2.1.3 0 .3 0 .6-.2.9-.1.2-.3.3-.5.3-.2.1-.4.1-.6.1s-.4.1-.6.1c-.2.1-.4.3-.5.5-.1.4-.2.7-.2 1.1 0 .3.1.5.1.8.1.2.1.5.1.8v.9c0 .4.1.8.4 1.1s.6.5 1 .5c.1 0 .3 0 .4-.1.1 0 .1 0 .2-.1l1.1.2h1.9c.3 0 .5.1.7.3h.5c.1 0 .2-.1.2-.2.1 0 .1-.1.2-.1h1.2c.1-.1.2-.2.3-.4.1-.1.2-.3.2-.5v-2.4l-.3-1.5v-.5c0-.2-.1-.3-.2-.4s-.3-.2-.5-.2c-.2-.1-.3-.2-.5-.3-.2-.2-.2-.4-.2-.6 0-.3.1-.5.4-.7.2-.2.5-.3.8-.3.3.1.5.2.8.3.2.1.5.1.8.2s.6.1.9.1h1.2c.2 0 .5 0 .7.1.3 0 .5.1.7.2s.4.3.6.5.2.5.2.7l-.2.3-.7.2h-.8c-.1 0-.3.1-.5.4-.2.2-.3.4-.3.7v3.2c0 .2 0 .4.1.7 0 .2.1.5.1.7 0 .1 0 .2-.1.3s-.1.2-.2.3c-.1.2-.1.4-.2.6v1.7c0 .3 0 .6.1.9s.1.5.1.8c0 .2 0 .4-.1.5-.1.2-.1.4-.1.7v.8c0 .1 0 .2.1.3.1.3.3.5.5.6.3.2.6.3.9.4s.6.2.9.4c.3.1.4.3.4.4s0 .3-.1.4l-.3.3c-.1.1-.3.2-.4.2H133l-1.4-.3-.9.3h-.3c-.1 0-.2 0-.4-.1-.1 0-.2-.1-.3-.2s-.1-.2-.1-.4q0-.3.3-.6c.2-.1.4-.3.7-.5s.5-.4.7-.7.3-.7.3-1.1v-3.5c0-.2-.1-.4-.2-.5-.1-.2-.2-.3-.4-.3h-2c-.2 0-.4-.1-.6-.2s-.4-.1-.6-.2h-2.9c-.4 0-.7.1-1 .3s-.4.6-.4.9v2l-.2.6v.3c0 .2 0 .3.1.5s.1.4.1.6c-.1.2-.1.6.1.7.2.2.5.4.7.6l.8.5c.2.1.4.3.4.6 0 .1 0 .1-.1.2s-.2.1-.3.2c-.1 0-.2.1-.4.1h-.3c-.1 0-.3 0-.4-.1-.2-.1-.4-.1-.6-.2s-.5-.1-.7-.2-.5-.1-.7-.1c-.1.1-.2.1-.3.2-.1 0-.2.1-.3.1h-2c-.3 0-.6-.1-.8-.2-.3-.1-.4-.4-.4-.7s0-.5.1-.8.3-.4.6-.4l.6-.2c.2 0 .4-.2.6-.3s.3-.3.3-.5v-2c0-.3-.1-.6-.2-.8-.1-.4-.2-.8-.2-1.2v-1.7c0-.2.1-.3.1-.5s.1-.4.1-.5v-.3l-.3-1.4c0-.2.1-.4.2-.6.1-.1.1-.3.2-.5v-2c0-.1-.1-.3-.3-.3-.3-.1-.5-.2-.8-.2s-.6-.1-.8-.2-.4-.1-.4-.2c0-.4.1-.7.4-1 .2-.3.4-.4.7-.4l1.5-.1zM145.2 168.6c.4 0 .7.1 1.1.2.3.1.5.4.7.6.2.3.3.6.4.9.1.4.1.7.1 1.1 0 .5-.2 1-.6 1.3s-.8.6-1.3.9c-.4.3-.8.5-1.2.7s-.8.4-1.2.7q-.6.3-.9.9c-.3.4-.4.8-.4 1.3v1.3c0 .4 0 .7.2 1 .1.3.4.5.7.5 0 0 .1 0 .2-.1s.3-.2.5-.3.3-.2.5-.4l.4-.3c.3-.1.6-.3.7-.4.2-.1.3-.1.4-.1s.2 0 .4.1c.1 0 .2.2.2.5-.1.5-.3.9-.6 1.3s-.7.8-1.1 1.2l-1.2.9c-.3.2-.5.4-.8.6-.3.3-.6.4-1 .5h-.9c-.2 0-.4-.1-.6-.2s-.4-.3-.5-.5-.3-.4-.4-.6-.1-.3-.1-.5v-.5c0-.2 0-.3-.1-.5 0-.1-.1-.1-.1-.2l.1-.6v-.5c0-.1 0-.3.1-.7s.1-.7.2-1.2c.1-.4.1-.8.2-1.2s.1-.6.1-.7c.1 0 .1-.1.1-.2v-.4c0-.1.1-.2.1-.3 0-.3.1-.5.2-.8.1-.1.1-.3.2-.4l.4-1c.1-.5.3-1 .6-1.4.4-.5.9-.9 1.4-1.3s1-.7 1.6-.9c.3-.2.8-.3 1.2-.3m-1.3 2.3c-.1 0-.2.1-.3.2-.1.2-.2.3-.3.5s-.2.5-.3.7c0 .1-.1.2-.1.3s-.1.2-.1.4v.3c.1.1.2.1.2.1.2 0 .3 0 .5-.1l.6-.3c.2-.1.4-.3.6-.4s.2-.3.3-.6v-.5c0-.1 0-.2-.1-.3l-.2-.2c-.1-.1-.2-.1-.3-.2zM158.5 156.4c.6 0 1 .2 1.1.6.2.4.2.8.2 1.3v.6q0 .45-.3.9c-.2.3-.4.6-.7.9-.2.3-.5.5-.8.7-.2.2-.5.3-.7.3s-.5 0-.7-.1-.3-.1-.5-.1c-.5 0-.9.1-1.3.4-.5.3-.8.7-.9 1.3-.1.2-.2.5-.2.8 0 .2 0 .5-.1.7-.2.5-.4 1.1-.6 1.7s-.3 1.3-.3 1.9v.3c0 .1-.1.3-.1.5s-.1.4-.1.6v1l-.4 2.5v1c0 .4-.1.8-.2 1.3s-.2 1-.3 1.6-.2 1.2-.2 1.8c0 .2 0 .4.1.6.1.3.1.4.3.4s.4-.1.6-.2.4-.3.6-.5l.6-.6.6-.6c.4-.4.8-.7 1.2-1.1.3-.3.8-.5 1.2-.5l.2.2c0 .3-.1.5-.2.8s-.3.6-.5.9l-.6.9-.6.6c-.4.3-.7.6-1 1-.3.5-.6.9-1 1.3-.1.3-.4.6-.7.7-.3.2-.6.4-.9.5-.3.2-.7.3-1.1.5-.3.2-.7.3-1.1.3-.2 0-.3 0-.5-.1-.1-.1-.2-.2-.2-.3v-.6c0-.3.1-.6 0-.8v-2c0-.3.1-.6.2-.9s.2-.5.2-.8v-.6c0 .2 0 .1.1-.2 0-.3.1-.8.2-1.4s.1-1.4.2-2.2c0-.8.1-1.8.1-2.7 0-.2.1-.4.2-.5.1-.2.2-.4.2-.6v-1.1c.1-.6.2-1.2.3-1.7s.1-1.1.2-1.7.1-1.1.2-1.7.3-1.1.5-1.7.4-1.1.8-1.6.7-1.1 1-1.7c.1-.3.3-.5.5-.7s.4-.4.7-.6c.3-.5.7-.9 1.2-1.1.4-.3.9-.4 1.5-.4zM167.7 156.4c.6 0 1 .2 1.1.6.2.4.2.8.2 1.3v.6q0 .45-.3.9c-.2.3-.4.6-.7.9s-.5.5-.8.7c-.2.2-.5.3-.7.3s-.5 0-.7-.1-.3-.1-.5-.1c-.5 0-.9.1-1.3.4-.5.3-.8.7-.9 1.3-.1.2-.2.5-.2.8 0 .2 0 .5-.1.7-.2.5-.4 1.1-.6 1.7s-.3 1.3-.3 1.9v.3l-.1.5c0 .2-.1.4-.1.6v1l-.4 2.5v1c0 .4-.1.8-.2 1.3s-.2 1-.3 1.6-.2 1.2-.2 1.8c0 .2 0 .4.1.6.1.3.1.4.3.4s.4-.1.6-.2.4-.3.6-.5l.6-.6.6-.6c.4-.4.8-.7 1.2-1.1.3-.3.8-.5 1.2-.5l.2.2c0 .3-.1.5-.2.8s-.3.6-.5.9l-.6.9-.6.6c-.4.3-.7.6-1 1-.3.5-.6.9-1 1.3-.1.3-.4.6-.7.7-.3.2-.6.4-.9.5-.3.2-.7.3-1.1.5-.3.2-.7.3-1.1.3-.2 0-.3 0-.5-.1-.1-.1-.2-.2-.2-.3v-3.4c0-.3.1-.6.2-.9s.2-.5.2-.8v-.6c0 .2 0 .1.1-.2 0-.3.1-.8.2-1.4s.1-1.4.2-2.2c0-.8.1-1.8.1-2.7 0-.2.1-.4.2-.5.1-.2.2-.4.2-.6v-1.1c.1-.6.2-1.2.3-1.7s.1-1.1.2-1.7.1-1.1.2-1.7.3-1.1.5-1.7.4-1.1.8-1.6.7-1.1 1-1.7c.1-.3.3-.5.5-.7s.4-.4.7-.6c.3-.5.7-.9 1.2-1.1.4-.3.9-.4 1.5-.4zM155.4 7.2c.1 0 .2 0 .3.1s.2.2.3.2l.3.3c.1.1.1.2.1.3v.7c0 .1 0 .3-.1.4v.4c0 .1.1.1.1.1l.1.1h.1c.2-.1.3-.2.4-.3.1-.2.3-.5.4-.7.1-.3.3-.5.4-.7s.2-.4.4-.5l.6-.1h.4c.2.1.4.3.4.6.1.2.1.4.1.6s-.1.5-.2.7c-.1.3-.3.5-.5.7-.1 0-.2.1-.2.1-.1 0-.1.1-.2.1h-.6c-.2 0-.3.1-.4.2s-.3.2-.4.4c-.2.3-.4.6-.5.9s-.2.6-.2.9l-.3.3c-.1.1-.2.3-.3.4-.1.2-.1.3-.1.5s0 .4-.1.5v.5c0 .2 0 .4-.1.6 0 .2-.1.4-.1.6s-.1.3-.2.5c-.1.1-.2.1-.3.2-.1 0-.3.1-.4.1-.2 0-.3.1-.5.1-.1 0-.2-.1-.2-.1l-.1-.1-.3-.5v-.4c0-.2.1-.4.1-.6s.1-.4.1-.6c0-.1 0-.2.1-.3.3-.4.4-.8.5-1.3.1-.4.2-.9.3-1.3l-.1-1.2c-.1-.2-.1-.2-.2-.2h-.3c-.1 0-.3.1-.4.2s-.2.1-.2.2l-.2.2c-.1.1-.2.1-.4.1-.1 0-.2-.1-.2-.2s0-.2-.1-.3c0-.1 0-.2.1-.3s.2-.2.2-.3c.1-.1.2-.2.4-.3.1-.1.2-.2.4-.3.1-.2.3-.3.4-.5s.2-.4.3-.5c.1-.2.2-.3.4-.4.4-.7.6-.8.7-.8M162.5 7.3h.6c.2 0 .4 0 .6.1.2 0 .3.1.4.2s.1.3.2.5l.2.2c.1.1.1.2.2.3s.1.2.1.3.1.2.1.3l-.1 1.6c0 .8-.3 1.6-.9 2.2-.1.1-.2.2-.2.3s-.1.2-.1.4c0 .1-.1.2-.1.4-.1.1-.1.3-.2.4s-.2.2-.2.3c-.1.1-.2.2-.3.4l-.3.3c-.1.1-.2.2-.4.2-.2.1-.3.2-.5.3-.1.1-.2.1-.3.2-.1 0-.2.1-.3.1h-.3c-.2 0-.4 0-.5-.1-.2-.1-.3-.2-.4-.3s-.2-.3-.3-.5-.1-.4-.1-.5v-1.2c0-.1 0-.1-.1-.2-.1-.2-.1-.3-.1-.5 0-.4.1-.9.3-1.3l.6-1.5c.2-.4.5-.9.7-1.3.2-.3.3-.5.6-.7l.3-.3.3-.3c.1-.1.2-.2.3-.2 0-.1.1-.1.2-.1m.1 2.1c-.2 0-.4.1-.6.2-.2.2-.4.3-.6.6-.2.2-.3.4-.5.6-.1.1-.2.3-.3.5l-.2.7c0 .2-.1.3-.1.5v.6c.1.1.1.1.1.2s.1.2.1.3c.1.1.1.2.2.3s.2.1.3.1c.2-.1.5-.2.7-.3s.3-.2.5-.3c.1-.1.3-.2.3-.3.1-.2.2-.4.2-.6s.2-.4.3-.7c0-.1 0-.2.1-.3s.1-.2.1-.3v-.8c0-.2-.1-.3-.1-.5-.1-.2-.1-.3-.2-.4 0-.1-.1-.1-.3-.1M171.6 0c.3 0 .6.1.7.3s.1.5.1.7v.3c0 .2-.1.4-.2.6s-.2.4-.4.5c-.2.2-.3.3-.5.4-.1.1-.3.2-.4.2s-.3 0-.4-.1c-.1 0-.2-.1-.3-.1-.3 0-.6.1-.8.2-.3.2-.5.4-.5.8-.1.1-.1.3-.1.5 0 .1 0 .3-.1.4-.1.3-.2.7-.3 1-.1.4-.2.8-.2 1.1V7c0 .1 0 .2-.1.3 0 .1 0 .2-.1.3v.6l-.3 1.5v.6c0 .2-.1.5-.1.8-.1.3-.1.6-.2.9-.1.4-.1.7-.1 1.1v.4c0 .2.1.2.2.2s.2 0 .4-.1c.1-.1.3-.2.4-.3s.2-.2.4-.3c.1-.1.2-.2.4-.3.2-.2.5-.4.7-.6s.4-.3.7-.3l.1.1c0 .2 0 .3-.1.5l-.3.6c-.1.2-.2.3-.4.5-.1.1-.2.3-.4.4l-.6.6c-.2.3-.4.5-.6.7-.1.2-.2.3-.4.4s-.3.2-.5.3-.4.2-.7.3c-.2.1-.4.2-.7.2-.1 0-.2 0-.3-.1-.1 0-.1-.1-.1-.2v-2c0-.2 0-.3.1-.5s.1-.3.1-.5v-.5c0-.2.1-.5.1-.8 0-.4.1-.8.1-1.3V8.9c0-.1 0-.2.1-.3s.1-.2.1-.3v-.7c.1-.3.1-.7.2-1 0-.3.1-.7.1-1s.1-.7.1-1c.1-.3.2-.7.3-1s.3-.7.5-.9c.2-.3.4-.6.6-1 .1-.2.2-.3.3-.4s.2-.2.4-.3c.2-.3.4-.5.7-.7s.6-.2.9-.2z"/><path d="M174.2 7.3c.2 0 .4 0 .6.1s.3.2.4.4.2.4.2.6.1.4.1.7-.1.6-.4.8c-.2.2-.5.4-.8.5-.2.2-.5.3-.7.4-.3.1-.5.3-.7.4s-.4.3-.6.5-.2.5-.2.7v.8c0 .2 0 .4.1.6s.2.3.4.3c0 0 .1 0 .1-.1.1-.1.2-.1.3-.2s.2-.1.3-.2l.2-.2c.2-.1.3-.2.4-.2s.2-.1.2 0h.2c.1 0 .1.1.1.3 0 .3-.2.6-.3.8-.2.2-.4.5-.7.7-.2.2-.5.4-.7.6-.2.1-.3.2-.5.3q-.3.3-.6.3h-.5c-.1 0-.2-.1-.3-.1l-.3-.3c-.1-.1-.2-.2-.2-.4 0-.1-.1-.2-.1-.3v-.3c0-.1 0-.2-.1-.3 0 0 0-.1-.1-.1l.1-.4v-.7c0-.2.1-.4.1-.7 0-.2.1-.5.1-.7s0-.4.1-.4l.1-.1v-.2c0-.1 0-.1.1-.2 0-.2 0-.3.1-.5 0-.1.1-.2.1-.3l.3-.6c0-.3.2-.6.4-.8.2-.3.5-.5.8-.8.3-.2.6-.4 1-.6.4-.1.6-.1.9-.1m-.8 1.4c-.1 0-.1 0-.2.1s-.1.2-.2.3-.1.3-.2.4c0 .1 0 .1-.1.2 0 .1 0 .2-.1.2v.2l.1.1h.3c.1 0 .3-.1.4-.2l.3-.3c.1-.1.2-.2.2-.3v-.3c0-.1 0-.1-.1-.2l-.1-.1c-.1 0-.1-.1-.2-.1z"/></svg>